<svg width="212" height="83" viewBox="0 0 212 83" fill="none" xmlns="http://www.w3.org/2000/svg">
<path d="M26.6934 64H56.5414V54.48H37.5574V24.8H26.6934V64Z" fill="#00ACC8"/>
<path d="M80.4617 64.784C92.5577 64.784 101.63 55.656 101.63 44.4V44.288C101.63 33.032 92.6697 24.016 80.5737 24.016C68.4777 24.016 59.4057 33.144 59.4057 44.4V44.512C59.4057 55.768 68.3657 64.784 80.4617 64.784ZM80.5737 54.984C74.5817 54.984 70.4937 50.056 70.4937 44.4V44.288C70.4937 38.632 74.4697 33.816 80.4617 33.816C86.4537 33.816 90.4857 38.688 90.4857 44.4V44.512C90.4857 50.168 86.5097 54.984 80.5737 54.984Z" fill="#00ACC8"/>
<path d="M128.681 64.784C140.777 64.784 149.849 55.656 149.849 44.4V44.288C149.849 33.032 140.889 24.016 128.793 24.016C116.697 24.016 107.625 33.144 107.625 44.4V44.512C107.625 55.768 116.585 64.784 128.681 64.784ZM128.793 54.984C122.801 54.984 118.713 50.056 118.713 44.4V44.288C118.713 38.632 122.689 33.816 128.681 33.816C134.673 33.816 138.705 38.688 138.705 44.4V44.512C138.705 50.168 134.729 54.984 128.793 54.984Z" fill="#00ACC8"/>
<path d="M156.572 64H167.436V52.8H172.868C182.556 52.8 189.668 47.928 189.668 38.632V38.52C189.668 29.896 183.284 24.8 173.428 24.8H156.572V64ZM167.436 44.288V33.928H172.588C176.452 33.928 178.86 35.664 178.86 39.024V39.136C178.86 42.216 176.452 44.288 172.644 44.288H167.436Z" fill="#00ACC8"/>
<path fill-rule="evenodd" clip-rule="evenodd" d="M71 6H16C7.16344 6 0 13.1634 0 22V67C0 75.8366 7.16344 83 16 83H196C204.837 83 212 75.8366 212 67V22C212 13.1634 204.837 6 196 6H141V14H196C200.418 14 204 17.5817 204 22V67C204 71.4183 200.418 75 196 75H16C11.5817 75 8 71.4183 8 67V22C8 17.5817 11.5817 14 16 14H71V6Z" fill="#00ACC8"/>
<path d="M85.1049 16H88.4929V3.72398H93.1789V0.599976H80.4189V3.72398H85.1049V16Z" fill="#00ACC8"/>
<path d="M99.0846 16H102.473V9.81798H108.721V16H112.109V0.599976H108.721V6.69398H102.473V0.599976H99.0846V16Z" fill="#00ACC8"/>
<path d="M118.439 16H130.165V12.986H121.805V9.75198H129.065V6.73798H121.805V3.61398H130.055V0.599976H118.439V16Z" fill="#00ACC8"/>
</svg>
